<?xml version="1.0" encoding="UTF-8"?><svg id="Capa_2" xmlns="http://www.w3.org/2000/svg" viewBox="0 0 86.95 109.44"><defs><style>.cls-1{fill:#6f6f6e;}</style></defs><g id="Capa_1-2"><path class="cls-1" d="M19.94,78.58c1.66,1.05,3.14,3.46,3.65,5.62h39.77c.51-2.15,1.99-4.56,3.65-5.62,14.74-9.31,22.46-27.02,19.21-44.06C82.37,14.33,64.06-.65,43.58.03,22.97-.7,4.58,14.33.73,34.52c-3.24,17.04,4.48,34.75,19.21,44.05ZM17.77,29.85c2.67-4.92,6.59-7.84,9.4-9.42,2.02-1.14,4.59-.43,5.73,1.6,1.14,2.02.43,4.59-1.6,5.73-1.85,1.04-4.42,2.95-6.14,6.12-3.82,7.02-.32,14.73.1,15.59,1.01,2.09.13,4.61-1.97,5.62-.59.28-1.21.42-1.82.42-1.57,0-3.07-.88-3.79-2.38-.98-2.04-5.61-12.78.1-23.26Z"/><path class="cls-1" d="M23.82,92.61v4.84c0,6.61,5.09,11.99,11.35,11.99h16.61c6.25,0,11.34-5.38,11.34-11.99v-4.84H23.82Z"/></g></svg>